<svg width="10" height="10" viewBox="0 0 10 10" fill="none" xmlns="http://www.w3.org/2000/svg">
<g clip-path="url(#clip0_217_1890)">
<path d="M2.5 5H1.66667C1.44565 5 1.23369 4.9122 1.07741 4.75592C0.92113 4.59964 0.833333 4.38768 0.833333 4.16667V2.08333C0.833333 1.86232 0.92113 1.65036 1.07741 1.49408C1.23369 1.3378 1.44565 1.25 1.66667 1.25H8.33333C8.55435 1.25 8.76631 1.3378 8.92259 1.49408C9.07887 1.65036 9.16667 1.86232 9.16667 2.08333V4.16667C9.16667 4.38768 9.07887 4.59964 8.92259 4.75592C8.76631 4.9122 8.55435 5 8.33333 5H7.5" stroke="black" stroke-width="0.833333" stroke-linecap="round" stroke-linejoin="round"/>
<path d="M2.5 3.33333H7.5" stroke="black" stroke-width="0.833333" stroke-linecap="round" stroke-linejoin="round"/>
<path d="M7.625 7.375C7.80129 7.55933 7.90383 7.80193 7.91318 8.05682C7.92252 8.31171 7.83802 8.56117 7.6757 8.75791C7.51337 8.95466 7.28451 9.085 7.03248 9.12425C6.78046 9.16349 6.52279 9.1089 6.30833 8.97083C6.16889 8.8794 6.05313 8.75619 5.97056 8.61132C5.88799 8.46646 5.84096 8.30407 5.83333 8.1375V5" stroke="black" stroke-width="0.833333" stroke-linecap="round" stroke-linejoin="round"/>
<path d="M2.75 6.5C2.65154 6.59653 2.57858 6.71599 2.53765 6.84766C2.49671 6.97933 2.48909 7.1191 2.51547 7.25444C2.54184 7.38978 2.60139 7.51646 2.68877 7.62312C2.77614 7.72979 2.88862 7.8131 3.01612 7.8656C3.14362 7.9181 3.28216 7.93815 3.41931 7.92393C3.55646 7.90972 3.68794 7.8617 3.80197 7.78417C3.91599 7.70664 4.009 7.60203 4.07265 7.47972C4.1363 7.3574 4.1686 7.22121 4.16667 7.08333V5" stroke="black" stroke-width="0.833333" stroke-linecap="round" stroke-linejoin="round"/>
</g>
<defs>
<clipPath id="clip0_217_1890">
<rect width="10" height="10" fill="white"/>
</clipPath>
</defs>
</svg>
