<svg width="620" height="14" viewBox="0 0 620 14" fill="none" xmlns="http://www.w3.org/2000/svg">
<g clip-path="url(#clip0_217_1856)">
<path d="M4.80208 4.95625C4.82034 4.91936 4.84855 4.88831 4.88352 4.86659C4.91849 4.84488 4.95884 4.83338 5 4.83338C5.04116 4.83338 5.08151 4.84488 5.11648 4.86659C5.15145 4.88831 5.17966 4.91936 5.19792 4.95625L6.16042 6.90583C6.22382 7.03415 6.31742 7.14517 6.43318 7.22936C6.54893 7.31354 6.68339 7.36838 6.825 7.38917L8.9775 7.70417C9.01829 7.71008 9.0566 7.72728 9.08812 7.75383C9.11964 7.78039 9.1431 7.81523 9.15584 7.85442C9.16859 7.89361 9.17011 7.93559 9.16024 7.9756C9.15038 8.01561 9.12951 8.05206 9.1 8.08083L7.54333 9.59667C7.44067 9.69671 7.36386 9.8202 7.31952 9.95651C7.27517 10.0928 7.26461 10.2379 7.28875 10.3792L7.65625 12.5208C7.66345 12.5616 7.65905 12.6036 7.64354 12.642C7.62804 12.6803 7.60205 12.7136 7.56856 12.7379C7.53507 12.7622 7.49541 12.7767 7.45411 12.7795C7.41281 12.7824 7.37154 12.7736 7.335 12.7542L5.41083 11.7425C5.28405 11.6759 5.14299 11.6411 4.99979 11.6411C4.85659 11.6411 4.71553 11.6759 4.58875 11.7425L2.665 12.7542C2.62847 12.7735 2.58725 12.7822 2.54602 12.7793C2.50479 12.7763 2.46522 12.7619 2.43179 12.7376C2.39836 12.7133 2.37243 12.6801 2.35694 12.6418C2.34145 12.6034 2.33702 12.5615 2.34417 12.5208L2.71125 10.3796C2.7355 10.2382 2.72499 10.0931 2.68064 9.95669C2.63629 9.82029 2.55942 9.69673 2.45667 9.59667L0.9 8.08125C0.870248 8.05251 0.849164 8.016 0.839151 7.97586C0.829138 7.93573 0.830599 7.89359 0.843366 7.85425C0.856134 7.8149 0.879695 7.77993 0.911365 7.75333C0.943036 7.72672 0.981543 7.70954 1.0225 7.70375L3.17458 7.38917C3.31636 7.36854 3.451 7.31377 3.56691 7.22958C3.68282 7.14538 3.77654 7.03428 3.84 6.90583L4.80208 4.95625Z" fill="#FFD323" stroke="#FFD323" stroke-width="0.833333" stroke-linecap="round" stroke-linejoin="round"/>
</g>
<g clip-path="url(#clip1_217_1856)">
<path d="M16.8021 4.95625C16.8203 4.91936 16.8486 4.88831 16.8835 4.86659C16.9185 4.84488 16.9588 4.83338 17 4.83338C17.0412 4.83338 17.0815 4.84488 17.1165 4.86659C17.1514 4.88831 17.1797 4.91936 17.1979 4.95625L18.1604 6.90583C18.2238 7.03415 18.3174 7.14517 18.4332 7.22936C18.5489 7.31354 18.6834 7.36838 18.825 7.38917L20.9775 7.70417C21.0183 7.71008 21.0566 7.72728 21.0881 7.75383C21.1196 7.78039 21.1431 7.81523 21.1558 7.85442C21.1686 7.89361 21.1701 7.93559 21.1602 7.9756C21.1504 8.01561 21.1295 8.05206 21.1 8.08083L19.5433 9.59667C19.4407 9.69671 19.3639 9.8202 19.3195 9.95651C19.2752 10.0928 19.2646 10.2379 19.2888 10.3792L19.6563 12.5208C19.6635 12.5616 19.659 12.6036 19.6435 12.642C19.628 12.6803 19.6021 12.7136 19.5686 12.7379C19.5351 12.7622 19.4954 12.7767 19.4541 12.7795C19.4128 12.7824 19.3715 12.7736 19.335 12.7542L17.4108 11.7425C17.284 11.6759 17.143 11.6411 16.9998 11.6411C16.8566 11.6411 16.7155 11.6759 16.5887 11.7425L14.665 12.7542C14.6285 12.7735 14.5872 12.7822 14.546 12.7793C14.5048 12.7763 14.4652 12.7619 14.4318 12.7376C14.3984 12.7133 14.3724 12.6801 14.3569 12.6418C14.3414 12.6034 14.337 12.5615 14.3442 12.5208L14.7112 10.3796C14.7355 10.2382 14.725 10.0931 14.6806 9.95669C14.6363 9.82029 14.5594 9.69673 14.4567 9.59667L12.9 8.08125C12.8702 8.05251 12.8492 8.016 12.8392 7.97586C12.8291 7.93573 12.8306 7.89359 12.8434 7.85425C12.8561 7.8149 12.8797 7.77993 12.9114 7.75333C12.943 7.72672 12.9815 7.70954 13.0225 7.70375L15.1746 7.38917C15.3164 7.36854 15.451 7.31377 15.5669 7.22958C15.6828 7.14538 15.7765 7.03428 15.84 6.90583L16.8021 4.95625Z" fill="#FFD323" stroke="#FFD323" stroke-width="0.833333" stroke-linecap="round" stroke-linejoin="round"/>
</g>
<g clip-path="url(#clip2_217_1856)">
<path d="M28.8021 4.95625C28.8203 4.91936 28.8486 4.88831 28.8835 4.86659C28.9185 4.84488 28.9588 4.83338 29 4.83338C29.0412 4.83338 29.0815 4.84488 29.1165 4.86659C29.1515 4.88831 29.1797 4.91936 29.1979 4.95625L30.1604 6.90583C30.2238 7.03415 30.3174 7.14517 30.4332 7.22936C30.5489 7.31354 30.6834 7.36838 30.825 7.38917L32.9775 7.70417C33.0183 7.71008 33.0566 7.72728 33.0881 7.75383C33.1196 7.78039 33.1431 7.81523 33.1558 7.85442C33.1686 7.89361 33.1701 7.93559 33.1602 7.9756C33.1504 8.01561 33.1295 8.05206 33.1 8.08083L31.5433 9.59667C31.4407 9.69671 31.3639 9.8202 31.3195 9.95651C31.2752 10.0928 31.2646 10.2379 31.2888 10.3792L31.6563 12.5208C31.6635 12.5616 31.659 12.6036 31.6435 12.642C31.628 12.6803 31.6021 12.7136 31.5686 12.7379C31.5351 12.7622 31.4954 12.7767 31.4541 12.7795C31.4128 12.7824 31.3715 12.7736 31.335 12.7542L29.4108 11.7425C29.284 11.6759 29.143 11.6411 28.9998 11.6411C28.8566 11.6411 28.7155 11.6759 28.5888 11.7425L26.665 12.7542C26.6285 12.7735 26.5872 12.7822 26.546 12.7793C26.5048 12.7763 26.4652 12.7619 26.4318 12.7376C26.3984 12.7133 26.3724 12.6801 26.3569 12.6418C26.3415 12.6034 26.337 12.5615 26.3442 12.5208L26.7113 10.3796C26.7355 10.2382 26.725 10.0931 26.6806 9.95669C26.6363 9.82029 26.5594 9.69673 26.4567 9.59667L24.9 8.08125C24.8702 8.05251 24.8492 8.016 24.8392 7.97586C24.8291 7.93573 24.8306 7.89359 24.8434 7.85425C24.8561 7.8149 24.8797 7.77993 24.9114 7.75333C24.943 7.72672 24.9815 7.70954 25.0225 7.70375L27.1746 7.38917C27.3164 7.36854 27.451 7.31377 27.5669 7.22958C27.6828 7.14538 27.7765 7.03428 27.84 6.90583L28.8021 4.95625Z" fill="#FFD323" stroke="#FFD323" stroke-width="0.833333" stroke-linecap="round" stroke-linejoin="round"/>
</g>
<g clip-path="url(#clip3_217_1856)">
<path d="M40.8021 4.95625C40.8203 4.91936 40.8486 4.88831 40.8835 4.86659C40.9185 4.84488 40.9588 4.83338 41 4.83338C41.0412 4.83338 41.0815 4.84488 41.1165 4.86659C41.1515 4.88831 41.1797 4.91936 41.1979 4.95625L42.1604 6.90583C42.2238 7.03415 42.3174 7.14517 42.4332 7.22936C42.5489 7.31354 42.6834 7.36838 42.825 7.38917L44.9775 7.70417C45.0183 7.71008 45.0566 7.72728 45.0881 7.75383C45.1196 7.78039 45.1431 7.81523 45.1558 7.85442C45.1686 7.89361 45.1701 7.93559 45.1602 7.9756C45.1504 8.01561 45.1295 8.05206 45.1 8.08083L43.5433 9.59667C43.4407 9.69671 43.3639 9.8202 43.3195 9.95651C43.2752 10.0928 43.2646 10.2379 43.2888 10.3792L43.6563 12.5208C43.6635 12.5616 43.659 12.6036 43.6435 12.642C43.628 12.6803 43.6021 12.7136 43.5686 12.7379C43.5351 12.7622 43.4954 12.7767 43.4541 12.7795C43.4128 12.7824 43.3715 12.7736 43.335 12.7542L41.4108 11.7425C41.284 11.6759 41.143 11.6411 40.9998 11.6411C40.8566 11.6411 40.7155 11.6759 40.5888 11.7425L38.665 12.7542C38.6285 12.7735 38.5872 12.7822 38.546 12.7793C38.5048 12.7763 38.4652 12.7619 38.4318 12.7376C38.3984 12.7133 38.3724 12.6801 38.3569 12.6418C38.3415 12.6034 38.337 12.5615 38.3442 12.5208L38.7113 10.3796C38.7355 10.2382 38.725 10.0931 38.6806 9.95669C38.6363 9.82029 38.5594 9.69673 38.4567 9.59667L36.9 8.08125C36.8702 8.05251 36.8492 8.016 36.8392 7.97586C36.8291 7.93573 36.8306 7.89359 36.8434 7.85425C36.8561 7.8149 36.8797 7.77993 36.9114 7.75333C36.943 7.72672 36.9815 7.70954 37.0225 7.70375L39.1746 7.38917C39.3164 7.36854 39.451 7.31377 39.5669 7.22958C39.6828 7.14538 39.7765 7.03428 39.84 6.90583L40.8021 4.95625Z" fill="#FFD323" stroke="#FFD323" stroke-width="0.833333" stroke-linecap="round" stroke-linejoin="round"/>
</g>
<g clip-path="url(#clip4_217_1856)">
<path d="M52.8021 4.95625C52.8203 4.91936 52.8486 4.88831 52.8835 4.86659C52.9185 4.84488 52.9588 4.83338 53 4.83338C53.0412 4.83338 53.0815 4.84488 53.1165 4.86659C53.1515 4.88831 53.1797 4.91936 53.1979 4.95625L54.1604 6.90583C54.2238 7.03415 54.3174 7.14517 54.4332 7.22936C54.5489 7.31354 54.6834 7.36838 54.825 7.38917L56.9775 7.70417C57.0183 7.71008 57.0566 7.72728 57.0881 7.75383C57.1196 7.78039 57.1431 7.81523 57.1558 7.85442C57.1686 7.89361 57.1701 7.93559 57.1602 7.9756C57.1504 8.01561 57.1295 8.05206 57.1 8.08083L55.5433 9.59667C55.4407 9.69671 55.3639 9.8202 55.3195 9.95651C55.2752 10.0928 55.2646 10.2379 55.2888 10.3792L55.6563 12.5208C55.6635 12.5616 55.659 12.6036 55.6435 12.642C55.628 12.6803 55.6021 12.7136 55.5686 12.7379C55.5351 12.7622 55.4954 12.7767 55.4541 12.7795C55.4128 12.7824 55.3715 12.7736 55.335 12.7542L53.4108 11.7425C53.284 11.6759 53.143 11.6411 52.9998 11.6411C52.8566 11.6411 52.7155 11.6759 52.5888 11.7425L50.665 12.7542C50.6285 12.7735 50.5872 12.7822 50.546 12.7793C50.5048 12.7763 50.4652 12.7619 50.4318 12.7376C50.3984 12.7133 50.3724 12.6801 50.3569 12.6418C50.3415 12.6034 50.337 12.5615 50.3442 12.5208L50.7113 10.3796C50.7355 10.2382 50.725 10.0931 50.6806 9.95669C50.6363 9.82029 50.5594 9.69673 50.4567 9.59667L48.9 8.08125C48.8702 8.05251 48.8492 8.016 48.8392 7.97586C48.8291 7.93573 48.8306 7.89359 48.8434 7.85425C48.8561 7.8149 48.8797 7.77993 48.9114 7.75333C48.943 7.72672 48.9815 7.70954 49.0225 7.70375L51.1746 7.38917C51.3164 7.36854 51.451 7.31377 51.5669 7.22958C51.6828 7.14538 51.7765 7.03428 51.84 6.90583L52.8021 4.95625Z" fill="#FFD323" stroke="#FFD323" stroke-width="0.833333" stroke-linecap="round" stroke-linejoin="round"/>
</g>
<defs>
<clipPath id="clip0_217_1856">
<rect width="10" height="10" fill="white" transform="translate(0 4)"/>
</clipPath>
<clipPath id="clip1_217_1856">
<rect width="10" height="10" fill="white" transform="translate(12 4)"/>
</clipPath>
<clipPath id="clip2_217_1856">
<rect width="10" height="10" fill="white" transform="translate(24 4)"/>
</clipPath>
<clipPath id="clip3_217_1856">
<rect width="10" height="10" fill="white" transform="translate(36 4)"/>
</clipPath>
<clipPath id="clip4_217_1856">
<rect width="10" height="10" fill="white" transform="translate(48 4)"/>
</clipPath>
</defs>
</svg>
