<svg width="12" height="14" viewBox="0 0 12 14" fill="none" xmlns="http://www.w3.org/2000/svg">
<path d="M6.3005 12.8995C7.2305 12.0965 10 9.4965 10 7C10 5.93913 9.57857 4.92172 8.82843 4.17157C8.07828 3.42143 7.06087 3 6 3C4.93913 3 3.92172 3.42143 3.17157 4.17157C2.42143 4.92172 2 5.93913 2 7C2 9.4965 4.7695 12.0965 5.6995 12.8995C5.78614 12.9646 5.8916 12.9999 6 12.9999C6.1084 12.9999 6.21386 12.9646 6.3005 12.8995Z" stroke="#333333" stroke-linecap="round" stroke-linejoin="round"/>
<path d="M6 8.5C6.82843 8.5 7.5 7.82843 7.5 7C7.5 6.17157 6.82843 5.5 6 5.5C5.17157 5.5 4.5 6.17157 4.5 7C4.5 7.82843 5.17157 8.5 6 8.5Z" stroke="#333333" stroke-linecap="round" stroke-linejoin="round"/>
</svg>
