<svg width="18" height="16" viewBox="0 0 18 16" fill="none" xmlns="http://www.w3.org/2000/svg">
<g clip-path="url(#clip0_217_346)">
<path d="M0.000460077 8.70479C-6.50077e-05 9.12472 0.166247 9.52765 0.462808 9.82495C0.759369 10.1223 1.16189 10.2896 1.58181 10.2901L6.58514 10.2964L5.82062 13.9133C5.80469 13.9925 5.79666 14.0795 5.79655 14.1666C5.79615 14.4912 5.93035 14.7922 6.14384 15.0062L6.98196 15.8385L12.1976 10.6359C12.4909 10.3433 12.6656 9.94771 12.6661 9.51229L12.676 1.59563C12.6766 1.17571 12.5102 0.772774 12.2137 0.47547C11.9171 0.178167 11.5146 0.010848 11.0947 0.0103229L3.96968 0.00141365C3.3126 0.000592018 2.75002 0.395722 2.51181 0.965424L0.113995 6.54368C0.0425177 6.72568 0.00269729 6.91563 0.00243991 7.12146L0.000460077 8.70479ZM17.428 0.0182422L14.2613 0.0142826L14.2495 9.51427L17.4161 9.51823L17.428 0.0182422Z" fill="url(#paint0_linear_217_346)"/>
</g>
<defs>
<linearGradient id="paint0_linear_217_346" x1="17.4181" y1="7.9349" x2="0.00144976" y2="7.91312" gradientUnits="userSpaceOnUse">
<stop stop-color="#6E44FF"/>
<stop offset="1" stop-color="#20007F"/>
</linearGradient>
<clipPath id="clip0_217_346">
<rect width="17.4277" height="15.837" fill="white"/>
</clipPath>
</defs>
</svg>
