<svg width="10" height="9" viewBox="0 0 10 9" fill="none" xmlns="http://www.w3.org/2000/svg">
<g clip-path="url(#clip0_217_243)">
<g clip-path="url(#clip1_217_243)">
<path d="M4.38649 0.544747C4.40475 0.507856 4.43296 0.476803 4.46793 0.455091C4.5029 0.43338 4.54325 0.421875 4.58441 0.421875C4.62557 0.421875 4.66592 0.43338 4.70089 0.455091C4.73586 0.476803 4.76407 0.507856 4.78233 0.544747L5.74483 2.49433C5.80823 2.62265 5.90183 2.73367 6.01759 2.81785C6.13334 2.90204 6.2678 2.95688 6.40941 2.97766L8.56191 3.29266C8.60269 3.29857 8.64101 3.31578 8.67253 3.34233C8.70405 3.36888 8.7275 3.40373 8.74025 3.44292C8.753 3.48211 8.75452 3.52408 8.74465 3.5641C8.73478 3.60411 8.71392 3.64056 8.68441 3.66933L7.12774 5.18516C7.02508 5.28521 6.94827 5.4087 6.90392 5.54501C6.85958 5.68132 6.84902 5.82637 6.87316 5.96766L7.24066 8.10933C7.24786 8.1501 7.24346 8.19207 7.22795 8.23045C7.21245 8.26883 7.18646 8.30208 7.15297 8.32641C7.11947 8.35074 7.07982 8.36516 7.03852 8.36804C6.99722 8.37091 6.95595 8.36212 6.91941 8.34266L4.99524 7.331C4.86846 7.26442 4.7274 7.22964 4.5842 7.22964C4.441 7.22964 4.29994 7.26442 4.17316 7.331L2.24941 8.34266C2.21288 8.362 2.17166 8.3707 2.13043 8.36777C2.0892 8.36484 2.04962 8.3504 2.0162 8.32609C1.98277 8.30178 1.95684 8.26858 1.94135 8.23026C1.92586 8.19194 1.92143 8.15004 1.92858 8.10933L2.29566 5.96808C2.31991 5.82672 2.3094 5.68158 2.26505 5.54518C2.2207 5.40879 2.14383 5.28523 2.04108 5.18516L0.484409 3.66975C0.454656 3.64101 0.433573 3.6045 0.42356 3.56436C0.413547 3.52423 0.415007 3.48209 0.427775 3.44274C0.440542 3.4034 0.464103 3.36843 0.495774 3.34182C0.527445 3.31522 0.565952 3.29804 0.606909 3.29225L2.75899 2.97766C2.90077 2.95704 3.0354 2.90227 3.15132 2.81808C3.26723 2.73388 3.36095 2.62278 3.42441 2.49433L4.38649 0.544747Z" fill="#E8E827" stroke="#E8E827" stroke-width="0.833333" stroke-linecap="round" stroke-linejoin="round"/>
</g>
</g>
<defs>
<clipPath id="clip0_217_243">
<rect width="9.16797" height="8.78003" fill="white"/>
</clipPath>
<clipPath id="clip1_217_243">
<rect width="10" height="10" fill="white" transform="translate(-0.416016 -0.414062)"/>
</clipPath>
</defs>
</svg>
