<svg width="14" height="14" viewBox="0 0 14 14" fill="none" xmlns="http://www.w3.org/2000/svg">
<g clip-path="url(#clip0_217_278)">
<mask id="path-1-inside-1_217_278" fill="white">
<path d="M-9 -9H23V23H-9V-9Z"/>
</mask>
<path d="M-9 -9V-9.8H-9.8V-9H-9ZM23 -9H23.8V-9.8H23V-9ZM23 23V23.8H23.8V23H23ZM-9 23H-9.8V23.8H-9V23ZM-9 -9H-9.8V-7.47619H-9H-8.2V-9H-9ZM-9 -5.95238H-9.8V-2.90476H-9H-8.2V-5.95238H-9ZM-9 -1.38095H-9.8V1.66667H-9H-8.2V-1.38095H-9ZM-9 3.19048H-9.8V6.23809H-9H-8.2V3.19048H-9ZM-9 7.7619H-9.8V10.8095H-9H-8.2V7.7619H-9ZM-9 12.3333H-9.8V15.381H-9H-8.2V12.3333H-9ZM-9 16.9048H-9.8V19.9524H-9H-8.2V16.9048H-9ZM-9 21.4762H-9.8V23H-9H-8.2V21.4762H-9ZM-9 23V23.8H-7.47619V23V22.2H-9V23ZM-5.95238 23V23.8H-2.90476V23V22.2H-5.95238V23ZM-1.38095 23V23.8H1.66667V23V22.2H-1.38095V23ZM3.19048 23V23.8H6.23809V23V22.2H3.19048V23ZM7.7619 23V23.8H10.8095V23V22.2H7.7619V23ZM12.3333 23V23.8H15.381V23V22.2H12.3333V23ZM16.9048 23V23.8H19.9524V23V22.2H16.9048V23ZM21.4762 23V23.8H23V23V22.2H21.4762V23ZM23 23H23.8V21.4762H23H22.2V23H23ZM23 19.9524H23.8V16.9048H23H22.2V19.9524H23ZM23 15.381H23.8V12.3333H23H22.2V15.381H23ZM23 10.8095H23.8V7.76191H23H22.2V10.8095H23ZM23 6.2381H23.8V3.19048H23H22.2V6.2381H23ZM23 1.66667H23.8V-1.38095H23H22.2V1.66667H23ZM23 -2.90476H23.8V-5.95238H23H22.2V-2.90476H23ZM23 -7.47619H23.8V-9H23H22.2V-7.47619H23ZM23 -9V-9.8H21.4762V-9V-8.2H23V-9ZM19.9524 -9V-9.8H16.9048V-9V-8.2H19.9524V-9ZM15.381 -9V-9.8H12.3333V-9V-8.2H15.381V-9ZM10.8095 -9V-9.8H7.76191V-9V-8.2H10.8095V-9ZM6.2381 -9V-9.8H3.19048V-9V-8.2H6.2381V-9ZM1.66667 -9V-9.8H-1.38095V-9V-8.2H1.66667V-9ZM-2.90476 -9V-9.8H-5.95238V-9V-8.2H-2.90476V-9ZM-7.47619 -9V-9.8H-9V-9V-8.2H-7.47619V-9ZM-9 -9V-10.6H-10.6V-9H-9ZM23 -9H24.6V-10.6H23V-9ZM23 23V24.6H24.6V23H23ZM-9 23H-10.6V24.6H-9V23ZM-9 -9H-10.6V-7.47619H-9H-7.4V-9H-9ZM-9 -5.95238H-10.6V-2.90476H-9H-7.4V-5.95238H-9ZM-9 -1.38095H-10.6V1.66667H-9H-7.4V-1.38095H-9ZM-9 3.19048H-10.6V6.23809H-9H-7.4V3.19048H-9ZM-9 7.7619H-10.6V10.8095H-9H-7.4V7.7619H-9ZM-9 12.3333H-10.6V15.381H-9H-7.4V12.3333H-9ZM-9 16.9048H-10.6V19.9524H-9H-7.4V16.9048H-9ZM-9 21.4762H-10.6V23H-9H-7.4V21.4762H-9ZM-9 23V24.6H-7.47619V23V21.4H-9V23ZM-5.95238 23V24.6H-2.90476V23V21.4H-5.95238V23ZM-1.38095 23V24.6H1.66667V23V21.4H-1.38095V23ZM3.19048 23V24.6H6.23809V23V21.4H3.19048V23ZM7.7619 23V24.6H10.8095V23V21.4H7.7619V23ZM12.3333 23V24.6H15.381V23V21.4H12.3333V23ZM16.9048 23V24.6H19.9524V23V21.4H16.9048V23ZM21.4762 23V24.6H23V23V21.4H21.4762V23ZM23 23H24.6V21.4762H23H21.4V23H23ZM23 19.9524H24.6V16.9048H23H21.4V19.9524H23ZM23 15.381H24.6V12.3333H23H21.4V15.381H23ZM23 10.8095H24.6V7.76191H23H21.4V10.8095H23ZM23 6.2381H24.6V3.19048H23H21.4V6.2381H23ZM23 1.66667H24.6V-1.38095H23H21.4V1.66667H23ZM23 -2.90476H24.6V-5.95238H23H21.4V-2.90476H23ZM23 -7.47619H24.6V-9H23H21.4V-7.47619H23ZM23 -9V-10.6H21.4762V-9V-7.4H23V-9ZM19.9524 -9V-10.6H16.9048V-9V-7.4H19.9524V-9ZM15.381 -9V-10.6H12.3333V-9V-7.4H15.381V-9ZM10.8095 -9V-10.6H7.76191V-9V-7.4H10.8095V-9ZM6.2381 -9V-10.6H3.19048V-9V-7.4H6.2381V-9ZM1.66667 -9V-10.6H-1.38095V-9V-7.4H1.66667V-9ZM-2.90476 -9V-10.6H-5.95238V-9V-7.4H-2.90476V-9ZM-7.47619 -9V-10.6H-9V-9V-7.4H-7.47619V-9Z" fill="url(#paint0_linear_217_278)" mask="url(#path-1-inside-1_217_278)"/>
<path d="M2.91699 7H11.0837" stroke="black" stroke-width="1.16667" stroke-linecap="round" stroke-linejoin="round"/>
<path d="M7 2.91406V11.0807" stroke="black" stroke-width="1.16667" stroke-linecap="round" stroke-linejoin="round"/>
</g>
<defs>
<linearGradient id="paint0_linear_217_278" x1="-9" y1="7" x2="23" y2="7" gradientUnits="userSpaceOnUse">
<stop stop-color="#6E44FF"/>
<stop offset="1" stop-color="#20007F"/>
</linearGradient>
<clipPath id="clip0_217_278">
<rect width="14" height="14" fill="white"/>
</clipPath>
</defs>
</svg>
