<svg width="14" height="13" viewBox="0 0 14 13" fill="none" xmlns="http://www.w3.org/2000/svg">
<path d="M11.75 1.61255H4.25C4.05109 1.61255 3.86032 1.69157 3.71967 1.83222C3.57902 1.97287 3.5 2.16364 3.5 2.36255V9.86255C3.5 10.0615 3.57902 10.2522 3.71967 10.3929C3.86032 10.5335 4.05109 10.6125 4.25 10.6125H11.75C11.9489 10.6125 12.1397 10.5335 12.2803 10.3929C12.421 10.2522 12.5 10.0615 12.5 9.86255V2.36255C12.5 2.16364 12.421 1.97287 12.2803 1.83222C12.1397 1.69157 11.9489 1.61255 11.75 1.61255ZM4.25 9.86255V2.36255H11.75V9.86255H4.25Z" fill="#1E1E1E"/>
</svg>
