<svg width="13" height="13" viewBox="0 0 13 13" fill="none" xmlns="http://www.w3.org/2000/svg">
<path d="M10.75 1.61255H3.25C3.05109 1.61255 2.86032 1.69157 2.71967 1.83222C2.57902 1.97287 2.5 2.16364 2.5 2.36255V9.86255C2.5 10.0615 2.57902 10.2522 2.71967 10.3929C2.86032 10.5335 3.05109 10.6125 3.25 10.6125H10.75C10.9489 10.6125 11.1397 10.5335 11.2803 10.3929C11.421 10.2522 11.5 10.0615 11.5 9.86255V2.36255C11.5 2.16364 11.421 1.97287 11.2803 1.83222C11.1397 1.69157 10.9489 1.61255 10.75 1.61255ZM3.25 9.86255V2.36255H10.75V9.86255H3.25Z" fill="#1E1E1E"/>
</svg>
