<svg width="68" height="12" viewBox="0 0 68 12" fill="none" xmlns="http://www.w3.org/2000/svg">
<path d="M5.7625 1.1475C5.78441 1.10323 5.81826 1.06597 5.86023 1.03991C5.90219 1.01386 5.9506 1.00005 6 1.00005C6.0494 1.00005 6.09781 1.01386 6.13977 1.03991C6.18174 1.06597 6.21559 1.10323 6.2375 1.1475L7.3925 3.487C7.46859 3.64098 7.58091 3.7742 7.71981 3.87523C7.85872 3.97625 8.02006 4.04206 8.19 4.067L10.773 4.445C10.8219 4.45209 10.8679 4.47274 10.9057 4.5046C10.9436 4.53646 10.9717 4.57827 10.987 4.6253C11.0023 4.67233 11.0041 4.7227 10.9923 4.77072C10.9805 4.81873 10.9554 4.86248 10.92 4.897L9.052 6.716C8.92881 6.83605 8.83664 6.98424 8.78342 7.14781C8.7302 7.31139 8.71753 7.48544 8.7465 7.655L9.1875 10.225C9.19614 10.2739 9.19086 10.3243 9.17225 10.3703C9.15364 10.4164 9.12247 10.4563 9.08227 10.4855C9.04208 10.5147 8.99449 10.532 8.94493 10.5354C8.89538 10.5389 8.84585 10.5283 8.802 10.505L6.493 9.291C6.34086 9.21111 6.17159 9.16938 5.99975 9.16938C5.82791 9.16938 5.65864 9.21111 5.5065 9.291L3.198 10.505C3.15417 10.5282 3.1047 10.5386 3.05523 10.5351C3.00575 10.5316 2.95826 10.5143 2.91815 10.4851C2.87804 10.4559 2.84692 10.4161 2.82833 10.3701C2.80974 10.3241 2.80443 10.2739 2.813 10.225L3.2535 7.6555C3.2826 7.48587 3.26999 7.3117 3.21677 7.14802C3.16355 6.98435 3.0713 6.83608 2.948 6.716L1.08 4.8975C1.0443 4.86302 1.019 4.8192 1.00698 4.77104C0.994966 4.72288 0.996719 4.67231 1.01204 4.6251C1.02736 4.57788 1.05563 4.53592 1.09364 4.50399C1.13164 4.47206 1.17785 4.45145 1.227 4.4445L3.8095 4.067C3.97963 4.04225 4.14119 3.97653 4.28029 3.87549C4.41939 3.77446 4.53185 3.64114 4.608 3.487L5.7625 1.1475Z" fill="#FFD323" stroke="#FFD323" stroke-linecap="round" stroke-linejoin="round"/>
<path d="M19.7625 1.1475C19.7844 1.10323 19.8183 1.06597 19.8602 1.03991C19.9022 1.01386 19.9506 1.00005 20 1.00005C20.0494 1.00005 20.0978 1.01386 20.1398 1.03991C20.1817 1.06597 20.2156 1.10323 20.2375 1.1475L21.3925 3.487C21.4686 3.64098 21.5809 3.7742 21.7198 3.87523C21.8587 3.97625 22.0201 4.04206 22.19 4.067L24.773 4.445C24.8219 4.45209 24.8679 4.47274 24.9057 4.5046C24.9436 4.53646 24.9717 4.57827 24.987 4.6253C25.0023 4.67233 25.0041 4.7227 24.9923 4.77072C24.9805 4.81873 24.9554 4.86248 24.92 4.897L23.052 6.716C22.9288 6.83605 22.8366 6.98424 22.7834 7.14781C22.7302 7.31139 22.7175 7.48544 22.7465 7.655L23.1875 10.225C23.1961 10.2739 23.1909 10.3243 23.1722 10.3703C23.1536 10.4164 23.1225 10.4563 23.0823 10.4855C23.0421 10.5147 22.9945 10.532 22.9449 10.5354C22.8954 10.5389 22.8458 10.5283 22.802 10.505L20.493 9.291C20.3409 9.21111 20.1716 9.16938 19.9997 9.16938C19.8279 9.16938 19.6586 9.21111 19.5065 9.291L17.198 10.505C17.1542 10.5282 17.1047 10.5386 17.0552 10.5351C17.0058 10.5316 16.9583 10.5143 16.9181 10.4851C16.878 10.4559 16.8469 10.4161 16.8283 10.3701C16.8097 10.3241 16.8044 10.2739 16.813 10.225L17.2535 7.6555C17.2826 7.48587 17.27 7.3117 17.2168 7.14802C17.1635 6.98435 17.0713 6.83608 16.948 6.716L15.08 4.8975C15.0443 4.86302 15.019 4.8192 15.007 4.77104C14.995 4.72288 14.9967 4.67231 15.012 4.6251C15.0274 4.57788 15.0556 4.53592 15.0936 4.50399C15.1316 4.47206 15.1779 4.45145 15.227 4.4445L17.8095 4.067C17.9796 4.04225 18.1412 3.97653 18.2803 3.87549C18.4194 3.77446 18.5319 3.64114 18.608 3.487L19.7625 1.1475Z" fill="#FFD323" stroke="#FFD323" stroke-linecap="round" stroke-linejoin="round"/>
<path d="M33.7625 1.1475C33.7844 1.10323 33.8183 1.06597 33.8602 1.03991C33.9022 1.01386 33.9506 1.00005 34 1.00005C34.0494 1.00005 34.0978 1.01386 34.1398 1.03991C34.1817 1.06597 34.2156 1.10323 34.2375 1.1475L35.3925 3.487C35.4686 3.64098 35.5809 3.7742 35.7198 3.87523C35.8587 3.97625 36.0201 4.04206 36.19 4.067L38.773 4.445C38.8219 4.45209 38.8679 4.47274 38.9057 4.5046C38.9436 4.53646 38.9717 4.57827 38.987 4.6253C39.0023 4.67233 39.0041 4.7227 38.9923 4.77072C38.9805 4.81873 38.9554 4.86248 38.92 4.897L37.052 6.716C36.9288 6.83605 36.8366 6.98424 36.7834 7.14781C36.7302 7.31139 36.7175 7.48544 36.7465 7.655L37.1875 10.225C37.1961 10.2739 37.1909 10.3243 37.1722 10.3703C37.1536 10.4164 37.1225 10.4563 37.0823 10.4855C37.0421 10.5147 36.9945 10.532 36.9449 10.5354C36.8954 10.5389 36.8458 10.5283 36.802 10.505L34.493 9.291C34.3409 9.21111 34.1716 9.16938 33.9997 9.16938C33.8279 9.16938 33.6586 9.21111 33.5065 9.291L31.198 10.505C31.1542 10.5282 31.1047 10.5386 31.0552 10.5351C31.0058 10.5316 30.9583 10.5143 30.9181 10.4851C30.878 10.4559 30.8469 10.4161 30.8283 10.3701C30.8097 10.3241 30.8044 10.2739 30.813 10.225L31.2535 7.6555C31.2826 7.48587 31.27 7.3117 31.2168 7.14802C31.1635 6.98435 31.0713 6.83608 30.948 6.716L29.08 4.8975C29.0443 4.86302 29.019 4.8192 29.007 4.77104C28.995 4.72288 28.9967 4.67231 29.012 4.6251C29.0274 4.57788 29.0556 4.53592 29.0936 4.50399C29.1316 4.47206 29.1779 4.45145 29.227 4.4445L31.8095 4.067C31.9796 4.04225 32.1412 3.97653 32.2803 3.87549C32.4194 3.77446 32.5319 3.64114 32.608 3.487L33.7625 1.1475Z" fill="#FFD323" stroke="#FFD323" stroke-linecap="round" stroke-linejoin="round"/>
<path d="M47.7625 1.1475C47.7844 1.10323 47.8183 1.06597 47.8602 1.03991C47.9022 1.01386 47.9506 1.00005 48 1.00005C48.0494 1.00005 48.0978 1.01386 48.1398 1.03991C48.1817 1.06597 48.2156 1.10323 48.2375 1.1475L49.3925 3.487C49.4686 3.64098 49.5809 3.7742 49.7198 3.87523C49.8587 3.97625 50.0201 4.04206 50.19 4.067L52.773 4.445C52.8219 4.45209 52.8679 4.47274 52.9057 4.5046C52.9436 4.53646 52.9717 4.57827 52.987 4.6253C53.0023 4.67233 53.0041 4.7227 52.9923 4.77072C52.9805 4.81873 52.9554 4.86248 52.92 4.897L51.052 6.716C50.9288 6.83605 50.8366 6.98424 50.7834 7.14781C50.7302 7.31139 50.7175 7.48544 50.7465 7.655L51.1875 10.225C51.1961 10.2739 51.1909 10.3243 51.1722 10.3703C51.1536 10.4164 51.1225 10.4563 51.0823 10.4855C51.0421 10.5147 50.9945 10.532 50.9449 10.5354C50.8954 10.5389 50.8458 10.5283 50.802 10.505L48.493 9.291C48.3409 9.21111 48.1716 9.16938 47.9997 9.16938C47.8279 9.16938 47.6586 9.21111 47.5065 9.291L45.198 10.505C45.1542 10.5282 45.1047 10.5386 45.0552 10.5351C45.0058 10.5316 44.9583 10.5143 44.9181 10.4851C44.878 10.4559 44.8469 10.4161 44.8283 10.3701C44.8097 10.3241 44.8044 10.2739 44.813 10.225L45.2535 7.6555C45.2826 7.48587 45.27 7.3117 45.2168 7.14802C45.1635 6.98435 45.0713 6.83608 44.948 6.716L43.08 4.8975C43.0443 4.86302 43.019 4.8192 43.007 4.77104C42.995 4.72288 42.9967 4.67231 43.012 4.6251C43.0274 4.57788 43.0556 4.53592 43.0936 4.50399C43.1316 4.47206 43.1779 4.45145 43.227 4.4445L45.8095 4.067C45.9796 4.04225 46.1412 3.97653 46.2803 3.87549C46.4194 3.77446 46.5319 3.64114 46.608 3.487L47.7625 1.1475Z" fill="#FFD323" stroke="#FFD323" stroke-linecap="round" stroke-linejoin="round"/>
<path d="M61.7625 1.1475C61.7844 1.10323 61.8183 1.06597 61.8602 1.03991C61.9022 1.01386 61.9506 1.00005 62 1.00005C62.0494 1.00005 62.0978 1.01386 62.1398 1.03991C62.1817 1.06597 62.2156 1.10323 62.2375 1.1475L63.3925 3.487C63.4686 3.64098 63.5809 3.7742 63.7198 3.87523C63.8587 3.97625 64.0201 4.04206 64.19 4.067L66.773 4.445C66.8219 4.45209 66.8679 4.47274 66.9057 4.5046C66.9436 4.53646 66.9717 4.57827 66.987 4.6253C67.0023 4.67233 67.0041 4.7227 66.9923 4.77072C66.9805 4.81873 66.9554 4.86248 66.92 4.897L65.052 6.716C64.9288 6.83605 64.8366 6.98424 64.7834 7.14781C64.7302 7.31139 64.7175 7.48544 64.7465 7.655L65.1875 10.225C65.1961 10.2739 65.1909 10.3243 65.1722 10.3703C65.1536 10.4164 65.1225 10.4563 65.0823 10.4855C65.0421 10.5147 64.9945 10.532 64.9449 10.5354C64.8954 10.5389 64.8458 10.5283 64.802 10.505L62.493 9.291C62.3409 9.21111 62.1716 9.16938 61.9997 9.16938C61.8279 9.16938 61.6586 9.21111 61.5065 9.291L59.198 10.505C59.1542 10.5282 59.1047 10.5386 59.0552 10.5351C59.0058 10.5316 58.9583 10.5143 58.9181 10.4851C58.878 10.4559 58.8469 10.4161 58.8283 10.3701C58.8097 10.3241 58.8044 10.2739 58.813 10.225L59.2535 7.6555C59.2826 7.48587 59.27 7.3117 59.2168 7.14802C59.1635 6.98435 59.0713 6.83608 58.948 6.716L57.08 4.8975C57.0443 4.86302 57.019 4.8192 57.007 4.77104C56.995 4.72288 56.9967 4.67231 57.012 4.6251C57.0274 4.57788 57.0556 4.53592 57.0936 4.50399C57.1316 4.47206 57.1779 4.45145 57.227 4.4445L59.8095 4.067C59.9796 4.04225 60.1412 3.97653 60.2803 3.87549C60.4194 3.77446 60.5319 3.64114 60.608 3.487L61.7625 1.1475Z" fill="#DDDDDD" stroke="#DDDDDD" stroke-linecap="round" stroke-linejoin="round"/>
</svg>
