<svg width="27" height="27" viewBox="0 0 27 27" fill="none" xmlns="http://www.w3.org/2000/svg">
<g clip-path="url(#clip0_217_1779)">
<path d="M2.91667 26.25C2.11458 26.25 1.42819 25.9647 0.8575 25.394C0.286806 24.8233 0.000972222 24.1364 0 23.3333V2.91667C0 2.11458 0.285833 1.42819 0.8575 0.8575C1.42917 0.286806 2.11556 0.000972222 2.91667 0H23.3333C24.1354 0 24.8223 0.285833 25.394 0.8575C25.9656 1.42917 26.251 2.11556 26.25 2.91667V23.3333C26.25 24.1354 25.9647 24.8223 25.394 25.394C24.8233 25.9656 24.1364 26.251 23.3333 26.25H2.91667ZM4.375 20.4167H21.875L16.4062 13.125L12.0312 18.9583L8.75 14.5833L4.375 20.4167Z" fill="#3A00E5"/>
</g>
<defs>
<clipPath id="clip0_217_1779">
<rect width="26.25" height="26.25" fill="white"/>
</clipPath>
</defs>
</svg>
