<svg width="12" height="10" viewBox="0 0 12 10" fill="none" xmlns="http://www.w3.org/2000/svg">
<path d="M0.5 9.452V3.4205C0.35 3.34783 0.229167 3.25017 0.1375 3.1275C0.0458333 3.00483 0 2.863 0 2.702C0 2.55533 0.0648333 2.3845 0.1945 2.1895C0.324167 1.9945 0.509333 1.784 0.75 1.558C0.991 1.78433 1.17633 1.99483 1.306 2.1895C1.43567 2.38417 1.50033 2.555 1.5 2.702C1.5 2.86333 1.45417 3.00517 1.3625 3.1275C1.27083 3.25017 1.15 3.34783 1 3.4205V5.952H2.5V3.958H3.5445C3.36917 3.797 3.23467 3.6155 3.141 3.4135C3.04733 3.2115 3.00033 2.991 3 2.752C3 2.462 3.06967 2.19367 3.209 1.947C3.348 1.701 3.53467 1.49817 3.769 1.3385L5.75 0L7.731 1.3385C7.96533 1.49817 8.152 1.70117 8.291 1.9475C8.43033 2.19417 8.5 2.46233 8.5 2.752C8.5 2.991 8.453 3.2115 8.359 3.4135C8.265 3.6155 8.13067 3.797 7.956 3.958H9V5.952H10.5V3.4205C10.35 3.34783 10.2292 3.25017 10.1375 3.1275C10.0458 3.00517 10 2.86333 10 2.702C10 2.55533 10.0648 2.3845 10.1945 2.1895C10.3242 1.9945 10.5093 1.784 10.75 1.558C10.991 1.78433 11.1763 1.99483 11.306 2.1895C11.4357 2.38417 11.5003 2.555 11.5 2.702C11.5 2.86333 11.4542 3.00517 11.3625 3.1275C11.2708 3.25017 11.15 3.34783 11 3.4205V9.452H6.5V6.952H5V9.452H0.5ZM4.7 3.952H6.8C7.13067 3.952 7.41333 3.83467 7.648 3.6C7.88267 3.36533 8 3.08317 8 2.7535C8 2.5475 7.95283 2.35483 7.8585 2.1755C7.76417 1.99617 7.63117 1.85117 7.4595 1.7405L5.75 0.604L4.04 1.7405C3.86867 1.8515 3.73583 1.9965 3.6415 2.1755C3.54717 2.3545 3.5 2.54717 3.5 2.7535C3.5 3.0835 3.61733 3.36567 3.852 3.6C4.08667 3.83433 4.36933 3.95167 4.7 3.952ZM1 8.952H4.5V6.452H7V8.952H10.5V6.452H8.5V4.702C8.5 4.63133 8.476 4.572 8.428 4.524C8.38 4.476 8.32067 4.452 8.25 4.452H3.25C3.17933 4.452 3.12 4.476 3.072 4.524C3.024 4.572 3 4.63133 3 4.702V6.452H1V8.952Z" fill="url(#paint0_linear_217_1820)"/>
<defs>
<linearGradient id="paint0_linear_217_1820" x1="0" y1="4.726" x2="11.5" y2="4.726" gradientUnits="userSpaceOnUse">
<stop stop-color="#6E44FF"/>
<stop offset="1" stop-color="#20007F"/>
</linearGradient>
</defs>
</svg>
