<svg width="12" height="12" viewBox="0 0 12 12" fill="none" xmlns="http://www.w3.org/2000/svg">
<path d="M5 2L4 3" stroke="url(#paint0_linear_217_1824)" stroke-linecap="round" stroke-linejoin="round"/>
<path d="M8.5 9.5V10.5" stroke="url(#paint1_linear_217_1824)" stroke-linecap="round" stroke-linejoin="round"/>
<path d="M1 6H11" stroke="url(#paint2_linear_217_1824)" stroke-linecap="round" stroke-linejoin="round"/>
<path d="M3.5 9.5V10.5" stroke="url(#paint3_linear_217_1824)" stroke-linecap="round" stroke-linejoin="round"/>
<path d="M4.5 2.5L3.8105 1.8105C3.66591 1.66523 3.48232 1.56498 3.28194 1.52187C3.08156 1.47876 2.87299 1.49464 2.68145 1.56758C2.48991 1.64053 2.32361 1.76742 2.20267 1.9329C2.08173 2.09837 2.01133 2.29535 2 2.5V8.5C2 8.76522 2.10536 9.01957 2.29289 9.20711C2.48043 9.39464 2.73478 9.5 3 9.5H9C9.26522 9.5 9.51957 9.39464 9.70711 9.20711C9.89464 9.01957 10 8.76522 10 8.5V6" stroke="url(#paint4_linear_217_1824)" stroke-linecap="round" stroke-linejoin="round"/>
<defs>
<linearGradient id="paint0_linear_217_1824" x1="4" y1="2.5" x2="5" y2="2.5" gradientUnits="userSpaceOnUse">
<stop stop-color="#6E44FF"/>
<stop offset="1" stop-color="#20007F"/>
</linearGradient>
<linearGradient id="paint1_linear_217_1824" x1="8.5" y1="10" x2="9.5" y2="10" gradientUnits="userSpaceOnUse">
<stop stop-color="#6E44FF"/>
<stop offset="1" stop-color="#20007F"/>
</linearGradient>
<linearGradient id="paint2_linear_217_1824" x1="1" y1="6.5" x2="11" y2="6.5" gradientUnits="userSpaceOnUse">
<stop stop-color="#6E44FF"/>
<stop offset="1" stop-color="#20007F"/>
</linearGradient>
<linearGradient id="paint3_linear_217_1824" x1="3.5" y1="10" x2="4.5" y2="10" gradientUnits="userSpaceOnUse">
<stop stop-color="#6E44FF"/>
<stop offset="1" stop-color="#20007F"/>
</linearGradient>
<linearGradient id="paint4_linear_217_1824" x1="2" y1="5.49907" x2="10" y2="5.49907" gradientUnits="userSpaceOnUse">
<stop stop-color="#6E44FF"/>
<stop offset="1" stop-color="#20007F"/>
</linearGradient>
</defs>
</svg>
