<svg width="12" height="12" viewBox="0 0 12 12" fill="none" xmlns="http://www.w3.org/2000/svg">
<g clip-path="url(#clip0_154_291)">
<path d="M6 1C4.67392 1 3.40215 1.52678 2.46447 2.46447C1.52678 3.40215 1 4.67392 1 6C1 7.32608 1.52678 8.59785 2.46447 9.53553C3.40215 10.4732 4.67392 11 6 11C7.32608 11 8.59785 10.4732 9.53553 9.53553C10.4732 8.59785 11 7.32608 11 6C11 4.67392 10.4732 3.40215 9.53553 2.46447C8.59785 1.52678 7.32608 1 6 1ZM0 6C-1.17411e-08 5.21207 0.155195 4.43185 0.456723 3.7039C0.758251 2.97595 1.20021 2.31451 1.75736 1.75736C2.31451 1.20021 2.97595 0.758251 3.7039 0.456723C4.43185 0.155195 5.21207 0 6 0C6.78793 0 7.56815 0.155195 8.2961 0.456723C9.02405 0.758251 9.68549 1.20021 10.2426 1.75736C10.7998 2.31451 11.2417 2.97595 11.5433 3.7039C11.8448 4.43185 12 5.21207 12 6C12 7.5913 11.3679 9.11742 10.2426 10.2426C9.11742 11.3679 7.5913 12 6 12C4.4087 12 2.88258 11.3679 1.75736 10.2426C0.632141 9.11742 2.37122e-08 7.5913 0 6Z" fill="#1E1E1E"/>
</g>
<defs>
<clipPath id="clip0_154_291">
<rect width="12" height="12" fill="white"/>
</clipPath>
</defs>
</svg>
