<svg width="10" height="10" viewBox="0 0 10 10" fill="none" xmlns="http://www.w3.org/2000/svg">
<g clip-path="url(#clip0_157_2575)">
<path d="M1.66667 5.83333C1.58782 5.8336 1.51051 5.81149 1.44373 5.76957C1.37695 5.72766 1.32343 5.66765 1.2894 5.59652C1.25536 5.5254 1.24221 5.44608 1.25146 5.36777C1.26071 5.28947 1.29199 5.2154 1.34167 5.15417L5.46667 0.904167C5.49761 0.868451 5.53977 0.844315 5.58624 0.835722C5.63271 0.827129 5.68072 0.834589 5.72239 0.856877C5.76406 0.879165 5.79691 0.914957 5.81556 0.958378C5.8342 1.0018 5.83753 1.05027 5.825 1.09583L5.025 3.60417C5.00141 3.6673 4.99349 3.73522 5.00191 3.80209C5.01034 3.86896 5.03486 3.93278 5.07337 3.98809C5.11188 4.04341 5.16324 4.08855 5.22303 4.11965C5.28282 4.15075 5.34927 4.16689 5.41667 4.16667H8.33333C8.41218 4.1664 8.48949 4.18851 8.55627 4.23043C8.62305 4.27234 8.67657 4.33235 8.7106 4.40348C8.74464 4.4746 8.75779 4.55392 8.74854 4.63223C8.73929 4.71053 8.70801 4.7846 8.65833 4.84583L4.53333 9.09583C4.50239 9.13155 4.46023 9.15568 4.41376 9.16428C4.36729 9.17287 4.31928 9.16541 4.27761 9.14312C4.23594 9.12083 4.20309 9.08504 4.18444 9.04162C4.1658 8.9982 4.16247 8.94973 4.175 8.90417L4.975 6.39583C4.99859 6.3327 5.00651 6.26478 4.99809 6.19791C4.98966 6.13104 4.96514 6.06722 4.92663 6.01191C4.88812 5.95659 4.83676 5.91145 4.77697 5.88035C4.71718 5.84925 4.65073 5.83311 4.58333 5.83333H1.66667Z" stroke="black" stroke-width="0.833333" stroke-linecap="round" stroke-linejoin="round"/>
</g>
<defs>
<clipPath id="clip0_157_2575">
<rect width="10" height="10" fill="white"/>
</clipPath>
</defs>
</svg>
