<svg width="18" height="16" viewBox="0 0 18 16" fill="none" xmlns="http://www.w3.org/2000/svg">
<g clip-path="url(#clip0_154_206)">
<path d="M17.4167 7.125C17.4167 6.70507 17.2499 6.30235 16.9529 6.00541C16.656 5.70848 16.2533 5.54167 15.8333 5.54167H10.83L11.59 1.92375C11.6058 1.84458 11.6137 1.7575 11.6137 1.67042C11.6137 1.34583 11.4792 1.045 11.2654 0.83125L10.4262 0L5.21708 5.20917C4.92417 5.50208 4.75 5.89792 4.75 6.33333V14.25C4.75 14.6699 4.91681 15.0727 5.21375 15.3696C5.51068 15.6665 5.91341 15.8333 6.33333 15.8333H13.4583C14.1154 15.8333 14.6775 15.4375 14.915 14.8675L17.3058 9.28625C17.3771 9.10417 17.4167 8.91417 17.4167 8.70833V7.125ZM0 15.8333H3.16667V6.33333H0V15.8333Z" fill="#333333"/>
</g>
<defs>
<clipPath id="clip0_154_206">
<rect width="17.4167" height="15.8333" fill="white"/>
</clipPath>
</defs>
</svg>
