<svg width="18" height="16" viewBox="0 0 18 16" fill="none" xmlns="http://www.w3.org/2000/svg">
<g clip-path="url(#clip0_154_211)">
<path d="M-2.82046e-05 8.70479C-0.000553289 9.12472 0.165758 9.52765 0.462319 9.82495C0.75888 10.1223 1.1614 10.2896 1.58132 10.2901L6.58465 10.2964L5.82013 13.9133C5.8042 13.9925 5.79617 14.0795 5.79606 14.1666C5.79566 14.4912 5.92986 14.7922 6.14335 15.0062L6.98147 15.8385L12.1971 10.6359C12.4904 10.3433 12.6651 9.94771 12.6656 9.51229L12.6755 1.59563C12.6761 1.17571 12.5098 0.772774 12.2132 0.47547C11.9166 0.178167 11.5141 0.010848 11.0942 0.0103229L3.96919 0.00141365C3.31211 0.000592018 2.74953 0.395722 2.51132 0.965424L0.113507 6.54368C0.0420294 6.72568 0.00220901 6.91563 0.00195163 7.12146L-2.82046e-05 8.70479ZM17.4275 0.0182422L14.2608 0.0142826L14.249 9.51427L17.4156 9.51823L17.4275 0.0182422Z" fill="url(#paint0_linear_154_211)"/>
</g>
<defs>
<linearGradient id="paint0_linear_154_211" x1="17.4176" y1="7.9349" x2="0.000961476" y2="7.91312" gradientUnits="userSpaceOnUse">
<stop stop-color="#6E44FF"/>
<stop offset="1" stop-color="#20007F"/>
</linearGradient>
<clipPath id="clip0_154_211">
<rect width="17.4275" height="15.8372" fill="white"/>
</clipPath>
</defs>
</svg>
