<svg width="10" height="9" viewBox="0 0 10 9" fill="none" xmlns="http://www.w3.org/2000/svg">
<g clip-path="url(#clip0_154_343)">
<g clip-path="url(#clip1_154_343)">
<path d="M4.38616 0.544747C4.40442 0.507856 4.43262 0.476803 4.46759 0.455091C4.50257 0.43338 4.54291 0.421875 4.58407 0.421875C4.62524 0.421875 4.66558 0.43338 4.70055 0.455091C4.73552 0.476803 4.76373 0.507856 4.78199 0.544747L5.74449 2.49433C5.8079 2.62265 5.9015 2.73367 6.01725 2.81785C6.13301 2.90204 6.26746 2.95688 6.40907 2.97766L8.56157 3.29266C8.60236 3.29857 8.64068 3.31578 8.67219 3.34233C8.70371 3.36888 8.72717 3.40373 8.73991 3.44292C8.75266 3.48211 8.75419 3.52408 8.74432 3.5641C8.73445 3.60411 8.71358 3.64056 8.68407 3.66933L7.12741 5.18516C7.02475 5.28521 6.94794 5.4087 6.90359 5.54501C6.85924 5.68132 6.84868 5.82637 6.87282 5.96766L7.24032 8.10933C7.24752 8.1501 7.24312 8.19207 7.22761 8.23045C7.21211 8.26883 7.18613 8.30208 7.15263 8.32641C7.11914 8.35074 7.07948 8.36516 7.03818 8.36804C6.99689 8.37091 6.95561 8.36212 6.91907 8.34266L4.99491 7.331C4.86812 7.26442 4.72706 7.22964 4.58386 7.22964C4.44067 7.22964 4.29961 7.26442 4.17282 7.331L2.24907 8.34266C2.21254 8.362 2.17132 8.3707 2.13009 8.36777C2.08887 8.36484 2.04929 8.3504 2.01586 8.32609C1.98244 8.30178 1.9565 8.26858 1.94101 8.23026C1.92552 8.19194 1.9211 8.15004 1.92824 8.10933L2.29532 5.96808C2.31957 5.82672 2.30907 5.68158 2.26471 5.54518C2.22036 5.40879 2.14349 5.28523 2.04074 5.18516L0.484073 3.66975C0.45432 3.64101 0.433237 3.6045 0.423224 3.56436C0.413211 3.52423 0.414672 3.48209 0.427439 3.44274C0.440207 3.4034 0.463768 3.36843 0.495438 3.34182C0.527109 3.31522 0.565616 3.29804 0.606573 3.29225L2.75866 2.97766C2.90043 2.95704 3.03507 2.90227 3.15098 2.81808C3.2669 2.73388 3.36062 2.62278 3.42407 2.49433L4.38616 0.544747Z" fill="#E8E827" stroke="#E8E827" stroke-width="0.833333" stroke-linecap="round" stroke-linejoin="round"/>
</g>
</g>
<defs>
<clipPath id="clip0_154_343">
<rect width="9.16742" height="8.78003" fill="white"/>
</clipPath>
<clipPath id="clip1_154_343">
<rect width="10" height="10" fill="white" transform="translate(-0.415924 -0.414062)"/>
</clipPath>
</defs>
</svg>
